<?xml version="1.0" encoding="UTF-8" standalone="no"?>
<!-- Created with Inkscape (http://www.inkscape.org/) -->
<svg
   xmlns:dc="http://purl.org/dc/elements/1.1/"
   xmlns:cc="http://creativecommons.org/ns#"
   xmlns:rdf="http://www.w3.org/1999/02/22-rdf-syntax-ns#"
   xmlns:svg="http://www.w3.org/2000/svg"
   xmlns="http://www.w3.org/2000/svg"
   xmlns:sodipodi="http://sodipodi.sourceforge.net/DTD/sodipodi-0.dtd"
   xmlns:inkscape="http://www.inkscape.org/namespaces/inkscape"
   width="402.67828"
   height="500"
   id="svg5286"
   sodipodi:version="0.32"
   inkscape:version="0.46"
   version="1.0"
   sodipodi:docname="gum-tree-and-nuts-Erland-Howden.svg"
   inkscape:output_extension="org.inkscape.output.svg.inkscape">
  <defs
     id="defs5288" />
  <sodipodi:namedview
     id="base"
     pagecolor="#ffffff"
     bordercolor="#666666"
     borderopacity="1.0"
     gridtolerance="10000"
     guidetolerance="10"
     objecttolerance="10"
     inkscape:pageopacity="0.0"
     inkscape:pageshadow="2"
     inkscape:zoom="1"
     inkscape:cx="183.83914"
     inkscape:cy="250"
     inkscape:document-units="px"
     inkscape:current-layer="layer1"
     showgrid="false" />
  <metadata
     id="metadata5291">
    <rdf:RDF>
      <cc:Work
         rdf:about="">
        <dc:format>image/svg+xml</dc:format>
        <dc:type
           rdf:resource="http://purl.org/dc/dcmitype/StillImage" />
        <dc:title>Gum Leaf &amp; Nuts</dc:title>
        <dc:date>13-June-2008</dc:date>
        <dc:creator>
          <cc:Agent>
            <dc:title>Erland Howden</dc:title>
          </cc:Agent>
        </dc:creator>
        <dc:subject>
          <rdf:Bag>
            <rdf:li>eucalypt</rdf:li>
            <rdf:li>eucalyptus</rdf:li>
            <rdf:li>leaf</rdf:li>
            <rdf:li>nut</rdf:li>
            <rdf:li>plant</rdf:li>
            <rdf:li>flora</rdf:li>
            <rdf:li>nuts</rdf:li>
            <rdf:li>tree</rdf:li>
            <rdf:li>australia</rdf:li>
            <rdf:li>native</rdf:li>
            <rdf:li>australian</rdf:li>
            <rdf:li>silhouette</rdf:li>
            <rdf:li>nature</rdf:li>
          </rdf:Bag>
        </dc:subject>
        <dc:description>Eucalyptus Leaf with 2 gum nuts</dc:description>
        <cc:license
           rdf:resource="" />
      </cc:Work>
      <cc:License
         rdf:about="http://creativecommons.org/licenses/publicdomain/">
        <cc:permits
           rdf:resource="http://creativecommons.org/ns#Reproduction" />
        <cc:permits
           rdf:resource="http://creativecommons.org/ns#Distribution" />
        <cc:permits
           rdf:resource="http://creativecommons.org/ns#DerivativeWorks" />
      </cc:License>
    </rdf:RDF>
  </metadata>
  <g
     inkscape:label="Layer 1"
     inkscape:groupmode="layer"
     id="layer1"
     transform="translate(-206.04235,-136.33889)">
    <path
       id="path5269"
       style="fill:#000000;stroke:none"
       d="M 239.93478,625.38668 C 238.01813,625.29583 236.07717,625.43167 234.18482,625.11417 C 233.68548,625.03038 229.09144,624.34948 223.97592,623.60102 C 218.86027,622.85256 214.42118,621.96781 214.11116,621.63493 C 213.80115,621.30203 218.25901,620.86524 224.01743,620.6643 C 235.04666,620.27942 246.38252,618.30256 257.8297,614.80369 C 273.87922,609.89805 290.14755,602.00041 306.09631,591.30337 C 329.8912,578.08771 346.08351,554.90328 360.90543,532.4967 C 379.51667,500.036 393.43456,464.29656 405.77557,429.01702 C 414.03964,396.90461 431.89559,367.27554 454.58542,343.36781 C 454.58542,343.36781 460.38952,336.44212 463.63585,334.44069 C 484.12261,321.81015 525.90786,314.34845 539.62419,308.71633 C 550.68142,304.17607 559.95883,291.4551 566.01989,279.40153 C 570.76817,269.95871 570.3229,269.23138 562.23488,273.21916 C 558.40662,275.10669 549.93284,277.85657 543.40426,279.33002 C 533.09175,281.6575 531.38322,281.77575 530.38427,280.23122 C 527.55448,275.85599 529.56525,274.00175 540.7482,270.6741 C 558.61424,265.35779 569.37747,258.93916 573.43226,251.18305 C 575.03256,248.12196 578.99062,234.26955 578.26497,234.26955 C 578.05339,234.26955 574.99521,236.16959 571.46902,238.49185 C 559.93377,246.08873 551.52734,248.19049 532.67728,248.19049 C 523.57778,248.19049 515.79321,247.85059 515.37823,247.43517 C 513.92507,245.98045 519.74914,237.80027 521.8238,238.38205 C 538.03709,242.92863 562.07163,236.87138 572.17002,225.69366 C 574.45351,223.16612 577.15032,218.30825 578.16293,214.89842 C 580.52087,206.95838 582.95003,184.52909 582.18607,177.7513 C 581.86259,174.88134 581.96099,172.53317 582.40477,172.53317 C 582.84853,172.53317 587.13909,176.11771 591.93933,180.49881 L 600.66707,188.46444 L 599.98219,195.32765 C 596.79997,227.21712 582.97816,275.00208 564.62875,317.55202 C 558.76989,331.13798 558.73777,331.28422 559.8433,339.34131 C 560.45544,343.80268 560.68755,356.98569 560.35909,368.63691 C 559.707,414.38113 538.06315,454.07743 514.39848,491.71148 C 492.82671,529.23286 464.15595,559.06801 428.87322,583.57122 C 396.05131,605.04052 358.81274,618.56528 315.60473,624.70949 C 303.19133,626.47467 248.59181,626.96331 239.93478,625.38668 z M 379.4657,576.06577 C 428.78966,539.12534 443.40984,492.30486 469.39079,436.93957 C 485.49459,402.8765 510.14584,363.60471 535.27747,336.79749 C 541.21451,330.46463 543.73082,326.95147 542.91445,326.13509 C 540.33671,323.55736 516.6314,352.30293 498.38141,380.13683 C 484.47513,401.34594 476.28594,415.89078 467.37053,435.21534 C 443.72463,481.55226 430.48916,526.80403 393.09803,562.06894 C 367.59857,584.91127 333.10406,599.68113 323.82694,605.03844 C 338.97385,599.08623 358.60404,589.45399 379.4657,576.06577 z M 463.59458,331.82587 C 460.44137,330.97739 454.99405,328.47094 451.48941,326.25597 C 435.24154,315.98707 429.05404,312.99135 420.43179,311.21917 C 415.50991,310.20754 411.21866,309.11561 410.8957,308.79264 C 410.57271,308.46965 412.80005,305.43417 415.84533,302.04712 C 423.40276,293.64142 428.7754,278.59354 428.7754,265.8321 C 428.7754,258.71466 425.3357,247.36808 421.57822,242.09061 L 418.09706,237.20125 L 432.81772,237.24854 C 444.90561,237.28738 449.0226,236.80872 455.83692,234.57218 C 486.99615,224.34535 521.82482,244.86533 526.89251,276.43596 C 532.3591,310.49161 497.54067,340.96005 463.59458,331.82587 z M 386.80542,308.25368 C 377.90819,302.66338 372.92492,286.61976 375.37019,271.43793 C 379.62808,245.00211 399.87495,227.81478 414.75817,238.00197 C 425.35472,245.25505 429.45494,264.78502 424.0896,282.44919 C 421.13524,292.17577 415.58331,300.9394 409.08593,306.13221 C 403.06145,310.94707 392.66722,311.93677 386.80542,308.25368 z M 505.0948,240.19129 C 497.64517,234.81283 486.79864,231.04775 475.65544,229.9722 C 469.72557,229.39985 465.59577,229.9098 456.29952,232.36233 C 447.53854,234.67366 441.48029,235.48007 432.87731,235.48007 L 421.27275,235.48007 L 411.81486,228.35332 C 406.61302,224.43362 401.67972,221.00085 400.85193,220.72491 C 399.94257,220.42179 401.59586,217.90923 405.02919,214.37659 C 416.08303,203.00302 426.95135,177.83675 428.43542,160.17801 L 429.11772,152.05964 L 435.56736,157.56976 C 444.65528,165.3338 452.88236,167.6941 469.66466,167.3521 C 482.56668,167.08918 482.84588,167.14297 491.98917,171.65233 C 498.15671,174.69409 502.90563,178.10169 506.21201,181.85792 C 516.11162,193.1045 521.83153,210.51061 520.33447,224.83369 C 519.57416,232.10804 514.58929,245.26447 512.67065,245.06063 C 512.13449,245.00367 508.72535,242.81247 505.0948,240.19129 z M 386.36214,216.41443 C 381.51381,212.06984 381.3196,206.26475 381.80288,195.15271 C 382.07269,188.94854 385.68741,170.64812 397.7226,158.53488 C 408.04024,148.15034 412.69151,145.20733 419.01751,146.70404 C 424.94152,148.10564 426.35437,150.46366 426.35437,158.94918 C 426.35437,164.69451 425.21454,170.18552 422.07334,179.57291 C 416.01786,197.66941 408.33079,210.36643 399.47425,216.90057 C 394.43194,220.62067 390.91041,220.49011 386.36214,216.41443 z"
       sodipodi:nodetypes="cscsssccccssssssssssssssssscccsscccscccssscccccssssscccssccssssccsscccsscccsssssccssssssc" />
  </g>
</svg>
